<svg xmlns="http://www.w3.org/2000/svg" shape-rendering="geometricPrecision" text-rendering="geometricPrecision" image-rendering="optimizeQuality" fill-rule="evenodd" clip-rule="evenodd" viewBox="0 0 386 512.18"><path fill-rule="nonzero" d="M318.7 214.27v149.1h59.12c4.52 0 8.18 3.66 8.18 8.17 0 2.21-.88 4.21-2.29 5.68L271.58 509.29a8.161 8.161 0 0 1-11.5.96c-.38-.32-.73-.68-1.04-1.05L146.65 376.81a8.161 8.161 0 0 1 6.22-13.43l59.13-.01v-149.1c0-4.52 3.66-8.18 8.18-8.18h90.35c4.51 0 8.17 3.66 8.17 8.18zm-161.07 75.47v-149.1c0-4.52 3.66-8.18 8.18-8.18h49.65l-94.83-111.7-94.83 111.7h49.66c4.51 0 8.17 3.66 8.17 8.18v149.1h74zm16.35-140.93v149.1c0 4.51-3.66 8.18-8.17 8.18H75.46c-4.52 0-8.18-3.67-8.18-8.18v-149.1H8.16a8.273 8.273 0 0 1-5.27-1.94 8.161 8.161 0 0 1-.96-11.5L114.33 2.98c.31-.37.65-.73 1.04-1.05 3.43-2.91 8.58-2.48 11.49.96l112.13 132.07a8.141 8.141 0 0 1 2.29 5.68c0 4.51-3.66 8.17-8.17 8.17h-59.13zm128.37 222.73v-149.1h-74v149.1c0 4.52-3.66 8.18-8.17 8.18h-49.66l94.83 111.69 94.83-111.69h-49.65c-4.52 0-8.18-3.66-8.18-8.18z"/></svg>