<?xml version="1.0" encoding="utf-8"?>
<!-- Generator: Adobe Illustrator 27.1.1, SVG Export Plug-In . SVG Version: 6.00 Build 0)  -->
<svg version="1.1" id="Layer_1" xmlns="http://www.w3.org/2000/svg" xmlns:xlink="http://www.w3.org/1999/xlink" x="0px" y="0px"
	 viewBox="0 0 155.39 59.28" style="enable-background:new 0 0 155.39 59.28;" xml:space="preserve">
<style type="text/css">
	.st0{fill:#B5B5B6;}
	.st1{fill:#0020DB;}
	.st2{fill:#B31428;}
	.st3{fill:none;stroke:#898989;stroke-width:0.2448;stroke-miterlimit:10;}
	.st4{fill:none;stroke:#898989;stroke-width:0.25;stroke-miterlimit:10;}
	.st5{fill:#3E3A39;}
	.st6{stroke:#000000;stroke-width:0.25;stroke-miterlimit:10;}
	.st7{fill:#FFFFFF;}
	.st8{fill:#FFFDFD;}
	.st9{clip-path:url(#SVGID_00000140696972893645113050000003038616171535768984_);}
	.st10{fill:#6B84ED;}
	.st11{clip-path:url(#SVGID_00000149370171403693125650000001645742316600717468_);}
	.st12{fill:#E54141;}
	.st13{fill:#898989;}
	.st14{fill:#231815;stroke:#F7F8F8;stroke-width:0.25;stroke-miterlimit:10;}
	.st15{fill:#9FA0A0;stroke:#F7F8F8;stroke-width:0.25;stroke-miterlimit:10;}
	.st16{fill:#3E3A39;stroke:#F7F8F8;stroke-width:0.25;stroke-miterlimit:10;}
	.st17{fill:#B5B5B6;stroke:#F7F8F8;stroke-width:0.25;stroke-miterlimit:10;}
	.st18{fill:#595757;stroke:#F7F8F8;stroke-width:0.25;stroke-miterlimit:10;}
	.st19{fill:#C9CACA;stroke:#F7F8F8;stroke-width:0.25;stroke-miterlimit:10;}
	.st20{fill:#727171;stroke:#F7F8F8;stroke-width:0.25;stroke-miterlimit:10;}
	.st21{fill:#DCDDDD;stroke:#F7F8F8;stroke-width:0.25;stroke-miterlimit:10;}
	.st22{fill:#898989;stroke:#F7F8F8;stroke-width:0.25;stroke-miterlimit:10;}
	.st23{fill:#EFEFEF;stroke:#F7F8F8;stroke-width:0.25;stroke-miterlimit:10;}
</style>
<g>
	<g>
		<g>
			<g>
				<g>
					<path class="st7" d="M53.53,17.93h6.43c-1.55-3.34-3.75-6.32-6.43-8.77V17.93z"/>
				</g>
			</g>
		</g>
		<g>
			<g>
				<g>
					<path class="st7" d="M61.92,23.81H38.81v-5.88h8.83V5.02c-3.85-2.02-8.23-3.17-12.88-3.17C19.42,1.86,6.98,14.3,6.98,29.64
						c0,2.03,0.22,4,0.63,5.9h23.1v5.88h-8.83v12.83c3.85,2.02,8.22,3.16,12.87,3.16c15.34,0,27.78-12.44,27.78-27.78
						C62.54,27.64,62.32,25.69,61.92,23.81z M21.89,32.63v0.73H16v-0.82c0-8.08,6.55-14.63,14.63-14.63h5.97v5.89h-5.88
						C25.84,23.79,21.89,27.75,21.89,32.63z M53.52,26.82c0,8.08-6.55,14.63-14.63,14.63h-5.97v-5.89h5.88
						c4.88,0,8.84-3.96,8.84-8.84V26h5.89V26.82z"/>
				</g>
			</g>
		</g>
		<g>
			<g>
				<g>
					<path class="st7" d="M16,41.42H9.6c1.55,3.31,3.74,6.26,6.4,8.7V41.42z"/>
				</g>
			</g>
		</g>
	</g>
	<g>
		<path class="st7" d="M80.23,23.37h7.1v-3.34h-7.1c-2.72,0-4.93,2.21-4.93,4.93v14.28h3.34v-7.83h8.06v-3.34h-8.06v-3.11
			C78.64,24.09,79.35,23.37,80.23,23.37z"/>
		<polygon class="st7" points="101.82,20.03 89.05,20.03 89.05,23.37 93.77,23.37 93.77,39.24 97.11,39.24 97.11,23.37 
			101.82,23.37 		"/>
		<path class="st7" d="M108.52,23.37h7.1v-3.34h-7.1c-2.72,0-4.93,2.21-4.93,4.93v14.28h3.34v-7.83h8.06v-3.34h-8.06v-3.11
			C106.93,24.09,107.64,23.37,108.52,23.37z"/>
		<polygon class="st7" points="130.11,20.03 117.34,20.03 117.34,23.37 122.05,23.37 122.05,39.24 125.39,39.24 125.39,23.37 
			130.11,23.37 		"/>
		<g>
			<path class="st7" d="M137.65,37.38c-1.05,1.36-2.32,1.86-3.99,1.86c-2.82,0-4.55-2.11-4.55-4.72c0-2.78,1.96-4.72,4.6-4.72
				c2.53,0,4.26,1.73,4.26,4.7v0.48h-7.25c0.12,1.55,1.3,2.88,2.93,2.88c1.28,0,2.15-0.46,2.86-1.36L137.65,37.38z M136.37,33.72
				c-0.06-1.52-1.05-2.53-2.7-2.53s-2.74,1.02-2.93,2.53H136.37z"/>
			<path class="st7" d="M142.62,34.18l-3.22-4.14h1.96l2.38,3.22l2.24-3.22h1.82l-3.09,4.14l3.7,4.83h-1.98l-2.84-3.87l-2.8,3.87
				h-1.86L142.62,34.18z"/>
		</g>
	</g>
</g>
</svg>
