<?xml version="1.0" encoding="UTF-8"?><svg id="Layer_1" xmlns="http://www.w3.org/2000/svg" viewBox="0 0 1036.25 350.17"><defs><style>.cls-1{fill:#fff;}</style></defs><g><path class="cls-1" d="M293.36,101.3h40.51c-9.79-21.03-23.61-39.81-40.51-55.3v55.3Z"/><path class="cls-1" d="M346.29,138.38H200.61v-37.07h55.64V19.95C231.98,7.23,204.38,0,175.09,0,78.39,0,0,78.39,0,175.09c0,12.77,1.4,25.2,4,37.19H149.6v37.07h-55.64v80.89c24.26,12.71,51.84,19.94,81.12,19.94,96.7,0,175.09-78.39,175.09-175.09,0-12.6-1.36-24.87-3.89-36.71Zm-252.34,55.56v4.58H56.85v-5.18c0-50.93,41.29-92.21,92.22-92.21h37.63v37.11h-37.05c-30.77,0-55.71,24.94-55.71,55.71Zm199.41-36.61c0,50.93-41.29,92.22-92.22,92.22h-37.63v-37.11h37.05c30.77,0,55.71-24.94,55.71-55.71v-4.58h37.09v5.18Z"/><path class="cls-1" d="M56.85,249.35H16.52c9.78,20.85,23.54,39.47,40.33,54.85v-54.85Z"/></g><g><path class="cls-1" d="M520.1,135.41h45.02v-21.17h-45.02c-17.22,0-31.24,14.01-31.24,31.24v90.51h21.17v-49.65h51.08v-21.17h-51.08v-19.7c0-5.55,4.52-10.07,10.07-10.07Z"/><polygon class="cls-1" points="656.96 114.24 576.02 114.24 576.02 135.41 605.9 135.41 605.9 235.99 627.07 235.99 627.07 135.41 656.96 135.41 656.96 114.24"/><path class="cls-1" d="M699.41,135.41h45.02v-21.17h-45.02c-17.22,0-31.24,14.01-31.24,31.24v90.51h21.17v-49.65h51.08v-21.17h-51.08v-19.7c0-5.55,4.52-10.07,10.07-10.07Z"/><polygon class="cls-1" points="836.27 114.24 755.33 114.24 755.33 135.41 785.21 135.41 785.21 235.99 806.38 235.99 806.38 135.41 836.27 135.41 836.27 114.24"/><path class="cls-1" d="M878.15,135h44.65v-20.99h-44.65c-17.08,0-30.98,13.9-30.98,30.98v60.05c0,17.08,13.9,30.98,30.98,30.98h44.65v-20.99h-44.65c-5.51,0-9.99-4.48-9.99-9.99v-19.53h54.64v-21h-54.64v-19.53c0-5.51,4.48-9.99,9.99-9.99Z"/><polygon class="cls-1" points="1036.25 113.92 1011.34 113.92 985.97 155.14 958.95 113.92 933.6 113.92 973.69 175.09 933.6 236.25 958.95 236.25 985.97 195.04 1011.34 236.25 1036.25 236.25 998.6 175.09 1036.25 113.92"/></g></svg>