<?xml version="1.0" encoding="UTF-8"?><svg id="Layer_1" xmlns="http://www.w3.org/2000/svg" viewBox="0 0 979.43 979.43"><defs><style>.cls-1{fill:#0020db;}</style></defs><path class="cls-1" d="M820.52,283.35h113.31c-27.39-58.83-66.04-111.34-113.31-154.67v154.67Z"/><path class="cls-1" d="M968.56,387.04h-407.47v-103.69h155.61V55.81C648.83,20.23,571.66,0,489.71,0,219.25,0,0,219.25,0,489.71c0,35.71,3.92,70.49,11.18,104.02H418.43v103.69h-155.61v226.24c67.85,35.55,144.99,55.76,226.9,55.76,270.46,0,489.72-219.25,489.72-489.71,0-35.23-3.8-69.56-10.87-102.68Zm-705.8,155.39v12.81h-103.75v-14.49c0-142.45,115.48-257.92,257.92-257.92h105.26v103.78h-103.62c-86.05,0-155.81,69.76-155.81,155.81Zm557.74-102.41c0,142.45-115.48,257.92-257.92,257.92h-105.26v-103.78h103.62c86.05,0,155.81-69.76,155.81-155.81v-12.82h103.75v14.49Z"/><path class="cls-1" d="M159,697.43H46.21c27.37,58.33,65.84,110.39,112.79,153.41v-153.41Z"/></svg>